<svg width="15" height="21" viewBox="0 0 15 21" fill="none" xmlns="http://www.w3.org/2000/svg">
<path d="M11.787 1L11.787 13.355M11.787 17.716L11.787 19.5M11.787 17.716C11.2088 17.716 10.6543 17.4863 10.2455 17.0775C9.83668 16.6687 9.607 16.1142 9.607 15.536C9.607 14.9578 9.83668 14.4033 10.2455 13.9945C10.6543 13.5857 11.2088 13.356 11.787 13.356C12.3652 13.356 12.9197 13.5857 13.3285 13.9945C13.7373 14.4033 13.967 14.9578 13.967 15.536C13.967 16.1142 13.7373 16.6687 13.3285 17.0775C12.9197 17.4863 12.3652 17.716 11.787 17.716ZM3.18 1L3.18 4.105M3.18 8.466L3.18 19.5M3.18 8.466C2.60183 8.466 2.04734 8.23632 1.63851 7.82749C1.22968 7.41866 0.999999 6.86417 0.999999 6.286C0.999999 5.99972 1.05639 5.71624 1.16594 5.45175C1.2755 5.18726 1.43607 4.94694 1.63851 4.74451C1.84094 4.54208 2.08126 4.3815 2.34575 4.27194C2.61024 4.16239 2.89372 4.106 3.18 4.106C3.46628 4.106 3.74976 4.16239 4.01425 4.27194C4.27874 4.3815 4.51906 4.54207 4.72149 4.74451C4.92392 4.94694 5.0845 5.18726 5.19406 5.45175C5.30361 5.71624 5.36 5.99972 5.36 6.286C5.36 6.86417 5.13032 7.41866 4.72149 7.82749C4.31266 8.23632 3.75817 8.466 3.18 8.466Z" stroke="currentColor" stroke-width="1.5" stroke-miterlimit="10" stroke-linecap="round"/>
</svg>
