<svg width="23" height="20" viewBox="0 0 23 20" fill="none" xmlns="http://www.w3.org/2000/svg">
<path d="M12.2788 16.7879C12.7351 16.8728 13.1959 16.9174 13.6613 16.9218C14.832 16.9222 15.9896 16.6848 17.0576 16.2253L20.5708 16.7204C20.7351 16.7216 20.8978 16.6895 21.0483 16.6263C21.1988 16.5631 21.3337 16.4702 21.4443 16.3536C21.5548 16.2371 21.6385 16.0995 21.6898 15.9499C21.7412 15.8002 21.759 15.6419 21.7423 15.4852L21.32 12.0832C21.7723 11.0877 22.0038 10.013 22 8.92719C21.997 7.88222 21.7791 6.84807 21.3589 5.88391C20.9386 4.91974 20.3242 4.04449 19.5507 3.30822C18.7773 2.57194 17.86 1.98911 16.8514 1.59305C15.8428 1.197 14.7626 0.995494 13.6727 1.00008C11.8001 0.999839 9.98271 1.60812 8.51714 2.72565C7.05156 3.84317 6.02432 5.40396 5.60309 7.15327" stroke="currentColor" stroke-width="1.5" stroke-linecap="round" stroke-linejoin="round"/>
<path d="M13.6613 13.004C13.6535 14.3778 13.1668 15.7097 12.2787 16.788C11.678 17.4937 10.9203 18.0616 10.061 18.45C9.20165 18.8385 8.26257 19.0377 7.31253 19.0331C6.41649 19.028 5.53131 18.8446 4.71309 18.4944L2.08982 18.9439C1.95801 18.9578 1.82463 18.9423 1.70018 18.8983C1.57573 18.8544 1.46362 18.7834 1.3727 18.6909C1.28178 18.5983 1.21454 18.4868 1.17627 18.365C1.13801 18.2433 1.12977 18.1147 1.1522 17.9894L1.51544 15.4178C1.17077 14.6558 0.995265 13.8334 1.0001 13.0029C0.998507 11.6805 1.44719 10.3938 2.27798 9.33816C3.10876 8.28256 4.27624 7.51581 5.60303 7.15441C6.16171 6.99459 6.742 6.915 7.32501 6.91825C9.00692 6.92055 10.6191 7.56296 11.8072 8.70431C12.9953 9.84565 13.6622 11.3925 13.6613 13.0051" stroke="currentColor" stroke-width="1.5" stroke-linecap="round" stroke-linejoin="round"/>
</svg>
