<svg width="17" height="14" viewBox="0 0 17 14" fill="none" xmlns="http://www.w3.org/2000/svg">
<g clip-path="url(#clip0_1548_5562)">
<path d="M10.0788 0.529646C9.64257 0.405232 9.18843 0.656599 9.0627 1.08824L5.77849 12.4632C5.65277 12.8949 5.90678 13.3443 6.34297 13.4687C6.77915 13.5931 7.2333 13.3418 7.35902 12.9101L10.6432 1.53511C10.769 1.10347 10.5149 0.65406 10.0788 0.529646ZM12.1468 3.57906C11.8261 3.89644 11.8261 4.41187 12.1468 4.72925L14.438 6.99918L12.1442 9.2691C11.8235 9.58648 11.8235 10.1019 12.1442 10.4193C12.4649 10.7367 12.9858 10.7367 13.3065 10.4193L16.1802 7.57554C16.5009 7.25816 16.5009 6.74273 16.1802 6.42535L13.3065 3.5816C12.9858 3.26422 12.4649 3.26422 12.1442 3.5816L12.1468 3.57906ZM4.27751 3.57906C3.95678 3.26168 3.43593 3.26168 3.1152 3.57906L0.241519 6.42281C-0.0792044 6.74019 -0.0792044 7.25562 0.241519 7.57301L3.1152 10.4168C3.43593 10.7341 3.95678 10.7341 4.27751 10.4168C4.59823 10.0994 4.59823 9.58394 4.27751 9.26656L1.98369 6.99918L4.27751 4.72925C4.59823 4.41187 4.59823 3.89644 4.27751 3.57906Z" fill="currentColor"/>
</g>
<defs>
<clipPath id="clip0_1548_5562">
<rect width="16.4211" height="13" fill="white" transform="translate(0 0.5)"/>
</clipPath>
</defs>
</svg>
