<svg width="13" height="14" viewBox="0 0 13 14" fill="none" xmlns="http://www.w3.org/2000/svg">
<path d="M11.8706 6.11762L5.66964 12.6826C5.46248 12.9019 5.18607 13.043 4.887 13.0822C4.58792 13.1215 4.28446 13.0564 4.02777 12.898C3.77107 12.7396 3.57683 12.4975 3.47779 12.2126C3.37874 11.9277 3.38094 11.6174 3.48401 11.3339L4.46876 8.625H2.17508C1.95239 8.625 1.7331 8.57043 1.5364 8.46605C1.33969 8.36167 1.17156 8.21067 1.04673 8.02627C0.921896 7.84187 0.844161 7.62968 0.820327 7.40827C0.796493 7.18687 0.827287 6.963 0.910013 6.75625L2.79745 2.03806C2.93107 1.70402 3.1617 1.41767 3.45959 1.21593C3.75749 1.0142 4.10899 0.906332 4.46876 0.90625H7.71876C8.50526 0.90625 9.04883 1.69194 8.77339 2.42806L8.12501 4.15625H11.0248C11.252 4.15624 11.4742 4.22278 11.664 4.34766C11.8538 4.47253 12.0028 4.65027 12.0927 4.8589C12.1826 5.06754 12.2094 5.29794 12.1698 5.52164C12.1302 5.74534 12.0267 5.95253 11.8706 6.11762Z" fill="currentColor" />
</svg>
