<svg width="59" height="95" viewBox="0 0 59 95" fill="none" xmlns="http://www.w3.org/2000/svg">
<path d="M29.2748 51.7008C22.2566 51.7008 16.1805 49.8206 11.0453 46.0601C6.08136 42.1289 3.59961 36.3174 3.59961 28.6258C3.59961 22.1306 6.08136 16.661 11.0453 12.2168C16.1805 7.77291 22.2566 5.55078 29.2748 5.55078C36.2926 5.55078 42.2832 7.77291 47.2471 12.2168C52.3824 16.661 54.9496 22.1306 54.9496 28.6258C54.9496 44.0091 46.3913 51.7008 29.2748 51.7008ZM29.2748 33.7534C30.6439 33.7534 31.842 33.2408 32.8692 32.2151C33.8963 31.1898 34.4097 29.9934 34.4097 28.6258C34.4097 27.2582 33.8963 26.0618 32.8692 25.0365C31.842 24.0108 30.6439 23.4981 29.2748 23.4981C27.9053 23.4981 26.7072 24.0108 25.68 25.0365C24.6533 26.0618 24.1395 27.2582 24.1395 28.6258C24.1395 29.9934 24.6533 31.1898 25.68 32.2151C26.7072 33.2408 27.9053 33.7534 29.2748 33.7534Z" fill="#68CB9F"/>
<path d="M29.275 1C36.7748 1 43.9671 3.93274 49.2693 9.15209C54.5718 14.3714 57.55 21.4495 57.55 28.8297C57.55 40.3308 48.6391 52.4359 31.0579 65.415C30.5439 65.7946 29.9184 66 29.275 66C28.6316 66 28.0061 65.7946 27.4921 65.415C9.91088 52.4359 1 40.3308 1 28.8297C1 21.4495 3.97818 14.3714 9.28071 9.15209C14.5829 3.93274 21.7752 1 29.275 1ZM29.275 19.2952C26.7078 19.2952 24.2452 20.2988 22.429 22.0867C20.6128 23.8746 19.5918 26.2997 19.5918 28.8297C19.5918 31.3593 20.6128 33.7844 22.429 35.5723C24.2452 37.3601 26.7078 38.3638 29.275 38.3638C31.8422 38.3638 34.3048 37.3601 36.121 35.5723C37.9372 33.7844 38.9582 31.3593 38.9582 28.8297C38.9582 26.2997 37.9372 23.8746 36.121 22.0867C34.3048 20.2988 31.8422 19.2952 29.275 19.2952Z" fill="#68CB9F" stroke="#68CB9F"/>
<ellipse cx="29" cy="89.5" rx="29" ry="5.5" fill="#D9D9D9"/>
</svg>
