<svg width="24" height="24" viewBox="0 0 24 24" fill="none" xmlns="http://www.w3.org/2000/svg">
<path fill-rule="evenodd" clip-rule="evenodd" d="M18.0113 2.63114L18.1754 2.68839L19.4082 3.11244C19.8831 3.27676 20.3005 3.41987 20.6297 3.57889C20.9867 3.75063 21.3138 3.97114 21.5641 4.33052C21.8144 4.68884 21.9138 5.08003 21.959 5.48394C22 5.85816 22 6.3119 22 6.8303V15.536C22 16.276 22 16.9004 21.9446 17.3945C21.8872 17.9076 21.7579 18.4143 21.3959 18.8235C21.1816 19.066 20.9211 19.2602 20.6308 19.3938C20.1405 19.6186 19.6349 19.5847 19.1456 19.4797C18.6738 19.3779 18.1015 19.1808 17.4226 18.9465L17.3785 18.9316C16.2297 18.5351 15.8349 18.4122 15.4533 18.426C15.3009 18.4313 15.1494 18.4523 15.001 18.4885C14.6287 18.5786 14.28 18.8055 13.2718 19.4999L11.8544 20.4773L11.7108 20.5759C10.6215 21.3275 9.86462 21.8491 8.97846 21.9721C8.09333 22.095 7.22974 21.7971 5.98872 21.3678L5.82462 21.3116L4.59179 20.8876C4.11692 20.7232 3.69949 20.5801 3.37026 20.4211C3.01333 20.2494 2.68615 20.0289 2.4359 19.6684C2.18564 19.3101 2.08615 18.92 2.04103 18.515C2 18.1408 2 17.6881 2 17.1697V8.46395C2 7.72292 2 7.09851 2.05538 6.60555C2.11282 6.09245 2.24205 5.58571 2.6041 5.1765C2.81843 4.93396 3.07891 4.73978 3.36923 4.60615C3.85949 4.38035 4.36615 4.41427 4.85436 4.52028C5.32615 4.62099 5.89846 4.81924 6.57744 5.05353L6.62154 5.06837C7.77026 5.46379 8.16513 5.58783 8.54769 5.57405C8.69975 5.56863 8.85091 5.54768 8.99898 5.5115C9.37128 5.42033 9.72 5.19346 10.7282 4.50014L12.1456 3.5227L12.2892 3.42305C13.3785 2.67248 14.1354 2.1509 15.0205 2.02793C15.9067 1.90495 16.7703 2.20179 18.0113 2.63114ZM15.8462 3.6319V16.8548C16.3959 16.9163 16.9744 17.1156 17.7364 17.3785L17.8646 17.4231C18.6 17.6764 19.0872 17.8429 19.4595 17.9235C19.8246 18.0019 19.9487 17.9659 20.0051 17.9404C20.102 17.896 20.1889 17.8314 20.2605 17.7507C20.3015 17.704 20.3733 17.5927 20.4164 17.21C20.4605 16.8199 20.4615 16.2887 20.4615 15.4883V6.87164C20.4615 6.29917 20.4605 5.93873 20.4308 5.66522C20.4021 5.41185 20.3569 5.3175 20.3159 5.26025C20.2759 5.203 20.2041 5.12773 19.9815 5.02066C19.7395 4.90405 19.4072 4.78955 18.8841 4.60827L17.6892 4.19694C16.7795 3.88315 16.24 3.70611 15.8462 3.6319ZM14.3077 17.0457V3.97856C13.9887 4.16938 13.5795 4.44607 12.999 4.84574L11.5815 5.82318L11.4687 5.90057C10.7631 6.38822 10.2369 6.75079 9.69231 6.95433V20.0214C10.0113 19.8306 10.4205 19.5529 11.001 19.1532L12.4185 18.1768L12.5313 18.0994C13.2369 17.6118 13.7631 17.2492 14.3077 17.0457ZM8.15385 20.3692V7.14409C7.6041 7.08261 7.02564 6.8833 6.26359 6.62039L6.13539 6.57587C5.4 6.3225 4.91282 6.15606 4.53949 6.07549C4.17538 5.99704 4.05128 6.03202 3.9959 6.05747C3.89857 6.10205 3.81126 6.16703 3.73949 6.24829C3.69846 6.29387 3.62667 6.40519 3.58359 6.78789C3.53949 7.17802 3.53846 7.7102 3.53846 8.5106V17.1273C3.53846 17.6998 3.53949 18.0602 3.56923 18.3337C3.59795 18.5871 3.64308 18.6804 3.6841 18.7387C3.7241 18.7959 3.7959 18.8712 4.01846 18.9783C4.26051 19.0949 4.59282 19.2094 5.1159 19.3907L6.31077 19.802C7.22051 20.1147 7.75897 20.2928 8.15385 20.3681" fill="currentColor" />
</svg>
