<svg width="48" height="53" viewBox="0 0 48 53" fill="none" xmlns="http://www.w3.org/2000/svg">
<g filter="url(#filter0_d_1306_133)">
<path fill-rule="evenodd" clip-rule="evenodd" d="M35.9396 6.97754C32.7735 3.86445 28.4786 2.11523 24.0001 2.11523C19.5215 2.11523 15.2267 3.86445 12.0604 6.97754C8.89419 10.0906 7.11572 14.3124 7.11572 18.7141C7.11572 25.5741 12.4369 32.7942 22.9355 40.5355C23.2424 40.7619 23.616 40.8845 24.0001 40.8845C24.3842 40.8845 24.7577 40.7619 25.0647 40.5355C35.5633 32.7942 40.8844 25.5741 40.8844 18.7141C40.8844 14.3124 39.106 10.0906 35.9396 6.97754ZM26.1974 20.7695C25.5806 21.3849 24.861 21.6926 24.0387 21.6926C23.2163 21.6926 22.4967 21.3849 21.8799 20.7695C21.2631 20.1542 20.9547 19.4362 20.9547 18.6157C20.9547 17.7952 21.2631 17.0772 21.8799 16.4618C22.4967 15.8465 23.2163 15.5388 24.0387 15.5388C24.861 15.5388 25.5806 15.8465 26.1974 16.4618C26.8142 17.0772 27.1225 17.7952 27.1225 18.6157C27.1225 19.4362 26.8142 20.1542 26.1974 20.7695Z" fill="#7C88FF"/>
</g>
<circle cx="24.5" cy="18.5" r="6.5" fill="#7C88FF"/>
<path d="M13.1333 21L11 21.5333V15.1333C11.2667 15.5956 11.64 15.8889 12.12 16.0133C12.6178 16.1378 13.1333 16.2 13.6667 16.2C14.2711 16.2 14.8044 16.36 15.2667 16.68C15.7289 16.36 16.2622 16.2 16.8667 16.2C17.5956 16.2 18.2178 16.4311 18.7333 16.8933C19.2667 17.3556 19.5333 17.9244 19.5333 18.6V21L17.4 21.5333V18.6C17.4 18.4578 17.3467 18.3333 17.24 18.2267C17.1333 18.12 17.0089 18.0667 16.8667 18.0667C16.7244 18.0667 16.6 18.12 16.4933 18.2267C16.3867 18.3333 16.3333 18.4578 16.3333 18.6V21L14.2 21.5333V18.6C14.2 18.4578 14.1467 18.3333 14.04 18.2267C13.9333 18.12 13.8089 18.0667 13.6667 18.0667C13.5244 18.0667 13.4 18.12 13.2933 18.2267C13.1867 18.3333 13.1333 18.4578 13.1333 18.6V21ZM22.996 21C22.2672 21 21.636 20.8044 21.1027 20.4133C20.5872 20.0044 20.3294 19.4 20.3294 18.6C20.3294 17.9244 20.5872 17.3556 21.1027 16.8933C21.636 16.4311 22.2672 16.2 22.996 16.2C23.7249 16.2 24.3472 16.4311 24.8627 16.8933C25.396 17.3556 25.6627 17.9244 25.6627 18.6C25.6627 20.2 24.7738 21 22.996 21ZM22.996 19.1333C23.1383 19.1333 23.2627 19.08 23.3694 18.9733C23.476 18.8667 23.5294 18.7422 23.5294 18.6C23.5294 18.4578 23.476 18.3333 23.3694 18.2267C23.2627 18.12 23.1383 18.0667 22.996 18.0667C22.8538 18.0667 22.7294 18.12 22.6227 18.2267C22.516 18.3333 22.4627 18.4578 22.4627 18.6C22.4627 18.7422 22.516 18.8667 22.6227 18.9733C22.7294 19.08 22.8538 19.1333 22.996 19.1333ZM28.8556 21C28.1978 21 27.629 20.7689 27.149 20.3067C26.6867 19.8267 26.4556 19.2578 26.4556 18.6C26.4556 17.9244 26.6867 17.3556 27.149 16.8933C27.629 16.4311 28.1978 16.2 28.8556 16.2H30.189V18.0667H29.1223C28.9801 18.0667 28.8556 18.12 28.749 18.2267C28.6423 18.3333 28.589 18.4578 28.589 18.6C28.589 18.7422 28.6423 18.8667 28.749 18.9733C28.8556 19.08 28.9801 19.1333 29.1223 19.1333H30.189V21H28.8556ZM33.647 21C32.9181 21 32.287 20.8044 31.7536 20.4133C31.2381 20.0044 30.9803 19.4 30.9803 18.6C30.9803 17.9244 31.2381 17.3556 31.7536 16.8933C32.287 16.4311 32.9181 16.2 33.647 16.2C34.3759 16.2 34.9981 16.4311 35.5136 16.8933C36.047 17.3556 36.3136 17.9244 36.3136 18.6C36.3136 20.2 35.4248 21 33.647 21ZM33.647 19.1333C33.7892 19.1333 33.9136 19.08 34.0203 18.9733C34.127 18.8667 34.1803 18.7422 34.1803 18.6C34.1803 18.4578 34.127 18.3333 34.0203 18.2267C33.9136 18.12 33.7892 18.0667 33.647 18.0667C33.5048 18.0667 33.3803 18.12 33.2736 18.2267C33.167 18.3333 33.1136 18.4578 33.1136 18.6C33.1136 18.7422 33.167 18.8667 33.2736 18.9733C33.3803 19.08 33.5048 19.1333 33.647 19.1333Z" fill="white"/>
<defs>
<filter id="filter0_d_1306_133" x="0.815722" y="0.815234" width="46.3687" height="51.3693" filterUnits="userSpaceOnUse" color-interpolation-filters="sRGB">
<feFlood flood-opacity="0" result="BackgroundImageFix"/>
<feColorMatrix in="SourceAlpha" type="matrix" values="0 0 0 0 0 0 0 0 0 0 0 0 0 0 0 0 0 0 127 0" result="hardAlpha"/>
<feOffset dy="5"/>
<feGaussianBlur stdDeviation="3.15"/>
<feComposite in2="hardAlpha" operator="out"/>
<feColorMatrix type="matrix" values="0 0 0 0 0 0 0 0 0 0 0 0 0 0 0 0 0 0 0.17 0"/>
<feBlend mode="normal" in2="BackgroundImageFix" result="effect1_dropShadow_1306_133"/>
<feBlend mode="normal" in="SourceGraphic" in2="effect1_dropShadow_1306_133" result="shape"/>
</filter>
</defs>
</svg>
