<svg width="22" height="22" viewBox="0 0 22 22" fill="none" xmlns="http://www.w3.org/2000/svg">
<path d="M11 1C5.477 1 1 5.477 1 11C1 16.523 5.477 21 11 21C16.523 21 21 16.523 21 11C21 5.477 16.523 1 11 1Z" stroke="currentColor" stroke-width="1.5" stroke-linecap="round" stroke-linejoin="round"/>
<path d="M3.27148 17.346C3.27148 17.346 5.50048 14.5 11.0005 14.5C16.5005 14.5 18.7305 17.346 18.7305 17.346M11.0005 11C11.7961 11 12.5592 10.6839 13.1218 10.1213C13.6844 9.55871 14.0005 8.79565 14.0005 8C14.0005 7.20435 13.6844 6.44129 13.1218 5.87868C12.5592 5.31607 11.7961 5 11.0005 5C10.2048 5 9.44177 5.31607 8.87916 5.87868C8.31655 6.44129 8.00048 7.20435 8.00048 8C8.00048 8.79565 8.31655 9.55871 8.87916 10.1213C9.44177 10.6839 10.2048 11 11.0005 11Z" stroke="currentColor" stroke-width="1.5" stroke-linecap="round" stroke-linejoin="round" />
</svg>
