<svg width="15" height="16" viewBox="0 0 13 14" fill="none" xmlns="http://www.w3.org/2000/svg">
<path d="M8.87219 9.54073L12.125 13M10.25 6C10.25 8.7614 8.15131 11 5.5625 11C2.97366 11 0.875 8.7614 0.875 6C0.875 3.23857 2.97366 1 5.5625 1C8.15131 1 10.25 3.23857 10.25 6Z" stroke="currentColor" stroke-width="1.416" stroke-linecap="round" stroke-linejoin="round"/>
<path d="M8.99719 9.54073L12.25 13M10.375 6C10.375 8.7614 8.27631 11 5.6875 11C3.09866 11 1 8.7614 1 6C1 3.23857 3.09866 1 5.6875 1C8.27631 1 10.375 3.23857 10.375 6Z" stroke="currentColor" stroke-width="1.416" stroke-linecap="round" stroke-linejoin="round"/>
</svg>
