<svg width="24" height="24" viewBox="0 0 24 24" fill="none" xmlns="http://www.w3.org/2000/svg">
<path fill-rule="evenodd" clip-rule="evenodd" d="M10.896 2C9.47736 2.00012 8.07928 2.33949 6.81844 2.9898C5.5576 3.64011 4.47056 4.58251 3.64802 5.73835C2.82547 6.8942 2.29128 8.22998 2.09 9.63426C1.88872 11.0385 2.02619 12.4706 2.49095 13.8109C2.95571 15.1513 3.73427 16.361 4.76169 17.3393C5.7891 18.3176 7.03557 19.036 8.39711 19.4346C9.75864 19.8331 11.1958 19.9004 12.5886 19.6306C13.9814 19.3609 15.2894 18.762 16.4037 17.8839L18.3149 19.795L20.2262 21.7062C20.4236 21.8969 20.688 22.0023 20.9624 22C21.2369 21.9976 21.4994 21.8875 21.6934 21.6934C21.8875 21.4994 21.9976 21.2369 22 20.9625C22.0023 20.688 21.8968 20.4236 21.7062 20.2262L19.7949 18.3151L17.8837 16.4039C18.9178 15.0921 19.5617 13.5156 19.7417 11.8549C19.9216 10.1942 19.6304 8.51642 18.9013 7.01352C18.1722 5.51062 17.0347 4.24333 15.619 3.35669C14.2033 2.47005 12.5665 1.99989 10.896 2ZM4.09261 10.8965C4.09261 9.09215 4.8094 7.36174 6.08529 6.08589C7.36118 4.81005 9.09166 4.09329 10.896 4.09329C12.7004 4.09329 14.4309 4.81005 15.7068 6.08589C16.9827 7.36174 17.6995 9.09215 17.6995 10.8965C17.6995 12.7008 16.9827 14.4312 15.7068 15.707C14.4309 16.9829 12.7004 17.6996 10.896 17.6996C9.09166 17.6996 7.36118 16.9829 6.08529 15.707C4.8094 14.4312 4.09261 12.7008 4.09261 10.8965Z" fill="currentColor"/>
</svg>
