<svg width="23" height="21" viewBox="0 0 23 21" fill="none" xmlns="http://www.w3.org/2000/svg">
<path d="M10.5197 19H2.125C1.82663 19 1.54048 18.8815 1.3295 18.6705C1.11853 18.4595 1 18.1734 1 17.875V5.5C1 4.30653 1.47411 3.16193 2.31802 2.31802C3.16193 1.47411 4.30653 1 5.5 1H16.75C17.9435 1 19.0881 1.47411 19.932 2.31802C20.7759 3.16193 21.25 4.30653 21.25 5.5V9.30813M5.5 12.25H8.875M5.5 7.75H12.25" stroke="currentColor" stroke-width="1.6" stroke-linecap="round" stroke-linejoin="round"/>
<path d="M17 19C19.2091 19 21 17.2091 21 15C21 12.7909 19.2091 11 17 11C14.7909 11 13 12.7909 13 15C13 17.2091 14.7909 19 17 19Z" stroke="currentColor" stroke-width="1.6"/>
<path d="M20 18L22 20" stroke="currentColor" stroke-width="1.6" stroke-linecap="round"/>
</svg>
