<svg width="16" height="14" viewBox="0 0 16 14" fill="none" xmlns="http://www.w3.org/2000/svg">
<path  d="M3.02114 6.25L4.44614 4.825C4.58364 4.6875 4.65239 4.5125 4.65239 4.3C4.65239 4.0875 4.58364 3.9125 4.44614 3.775C4.30864 3.6375 4.13364 3.56875 3.92114 3.56875C3.70864 3.56875 3.53364 3.6375 3.39614 3.775L1.44614 5.725C1.29614 5.875 1.22114 6.05 1.22114 6.25C1.22114 6.45 1.29614 6.625 1.44614 6.775L3.39614 8.725C3.53364 8.8625 3.70864 8.93125 3.92114 8.93125C4.13364 8.93125 4.30864 8.8625 4.44614 8.725C4.58364 8.5875 4.65239 8.4125 4.65239 8.2C4.65239 7.9875 4.58364 7.8125 4.44614 7.675L3.02114 6.25ZM13.8211 6.25L12.3961 7.675C12.2586 7.8125 12.1899 7.9875 12.1899 8.2C12.1899 8.4125 12.2586 8.5875 12.3961 8.725C12.5336 8.8625 12.7086 8.93125 12.9211 8.93125C13.1336 8.93125 13.3086 8.8625 13.4461 8.725L15.3961 6.775C15.5461 6.625 15.6211 6.45 15.6211 6.25C15.6211 6.05 15.5461 5.875 15.3961 5.725L13.4461 3.775C13.3086 3.6375 13.1336 3.56875 12.9211 3.56875C12.7086 3.56875 12.5336 3.6375 12.3961 3.775C12.2586 3.9125 12.1899 4.0875 12.1899 4.3C12.1899 4.5125 12.2586 4.6875 12.3961 4.825L13.8211 6.25ZM6.17114 13.75C5.95864 13.75 5.78064 13.678 5.63714 13.534C5.49364 13.39 5.42164 13.212 5.42114 13V12.25H2.42114C2.00864 12.25 1.65564 12.1033 1.36214 11.8098C1.06864 11.5163 0.921643 11.163 0.921143 10.75V1.75C0.921143 1.3375 1.06814 0.9845 1.36214 0.691C1.65614 0.3975 2.00914 0.2505 2.42114 0.25H14.4211C14.8336 0.25 15.1869 0.397 15.4809 0.691C15.7749 0.985 15.9216 1.338 15.9211 1.75V10.75C15.9211 11.1625 15.7744 11.5158 15.4809 11.8098C15.1874 12.1038 14.8341 12.2505 14.4211 12.25H11.4211V13C11.4211 13.2125 11.3491 13.3908 11.2051 13.5348C11.0611 13.6788 10.8831 13.7505 10.6711 13.75H6.17114Z" fill="currentColor"/>
</svg>
